<?xml version="1.0" encoding="UTF-8" standalone="no"?><!-- Generator: Gravit.io --><svg xmlns="http://www.w3.org/2000/svg" xmlns:xlink="http://www.w3.org/1999/xlink" style="isolation:isolate" viewBox="0 0 64 64" width="64pt" height="64pt"><defs><clipPath id="_clipPath_q0GRNfFNTLNmpJ8bHEM7jv7bOTotDHeK"><rect width="64" height="64"/></clipPath></defs><g clip-path="url(#_clipPath_q0GRNfFNTLNmpJ8bHEM7jv7bOTotDHeK)"><ellipse vector-effect="non-scaling-stroke" cx="32" cy="32" rx="30.85000000000001" ry="30.83952454438395" fill="rgb(255,255,255)" style=":undefined;" stroke-width="1" stroke="rgb(0,0,0)" stroke-linejoin="miter" stroke-linecap="square" stroke-miterlimit="3"/><defs><filter id="Lxem2LwMr6tYm53d8nO1A5eZTzC1Dsqh" x="-200%" y="-200%" width="400%" height="400%" filterUnits="objectBoundingBox" color-interpolation-filters="sRGB"><feGaussianBlur xmlns="http://www.w3.org/2000/svg" in="SourceGraphic" stdDeviation="2.146804531419514"/><feOffset xmlns="http://www.w3.org/2000/svg" dx="0" dy="0" result="pf_100_offsetBlur"/><feFlood xmlns="http://www.w3.org/2000/svg" flood-color="#000000" flood-opacity="0.65"/><feComposite xmlns="http://www.w3.org/2000/svg" in2="pf_100_offsetBlur" operator="in" result="pf_100_dropShadow"/><feBlend xmlns="http://www.w3.org/2000/svg" in="SourceGraphic" in2="pf_100_dropShadow" mode="normal"/></filter></defs><g filter="url(#Lxem2LwMr6tYm53d8nO1A5eZTzC1Dsqh)"><circle vector-effect="non-scaling-stroke" cx="31.999999999999996" cy="32" r="29.149999999999995" fill="none" stroke-width="0.6" stroke="rgb(0,0,0)" stroke-linejoin="miter" stroke-linecap="square" stroke-miterlimit="3"/></g><path d=" M 11.485 40.217 L 11.485 40.217 Q 9.725 40.217 8.35 39.26 L 8.35 39.26 L 8.35 39.26 Q 6.975 38.303 6.216 36.543 L 6.216 36.543 L 6.216 36.543 Q 5.457 34.783 5.457 32.407 L 5.457 32.407 L 5.457 32.407 Q 5.457 30.031 6.216 28.271 L 6.216 28.271 L 6.216 28.271 Q 6.975 26.511 8.35 25.554 L 8.35 25.554 L 8.35 25.554 Q 9.725 24.597 11.485 24.597 L 11.485 24.597 L 11.485 24.597 Q 13.245 24.597 14.62 25.554 L 14.62 25.554 L 14.62 25.554 Q 15.995 26.511 16.754 28.271 L 16.754 28.271 L 16.754 28.271 Q 17.513 30.031 17.513 32.407 L 17.513 32.407 L 17.513 32.407 Q 17.513 34.783 16.754 36.543 L 16.754 36.543 L 16.754 36.543 Q 15.995 38.303 14.62 39.26 L 14.62 39.26 L 14.62 39.26 Q 13.245 40.217 11.485 40.217 L 11.485 40.217 Z  M 11.485 39.183 L 11.485 39.183 Q 12.937 39.183 14.048 38.38 L 14.048 38.38 L 14.048 38.38 Q 15.159 37.577 15.775 36.048 L 15.775 36.048 L 15.775 36.048 Q 16.391 34.519 16.391 32.407 L 16.391 32.407 L 16.391 32.407 Q 16.391 30.295 15.775 28.766 L 15.775 28.766 L 15.775 28.766 Q 15.159 27.237 14.048 26.434 L 14.048 26.434 L 14.048 26.434 Q 12.937 25.631 11.485 25.631 L 11.485 25.631 L 11.485 25.631 Q 10.033 25.631 8.922 26.434 L 8.922 26.434 L 8.922 26.434 Q 7.811 27.237 7.195 28.766 L 7.195 28.766 L 7.195 28.766 Q 6.579 30.295 6.579 32.407 L 6.579 32.407 L 6.579 32.407 Q 6.579 34.519 7.195 36.048 L 7.195 36.048 L 7.195 36.048 Q 7.811 37.577 8.922 38.38 L 8.922 38.38 L 8.922 38.38 Q 10.033 39.183 11.485 39.183 L 11.485 39.183 Z  M 29.437 40.107 L 28.139 40.107 L 24.201 34.981 L 20.263 40.107 L 19.009 40.107 L 23.563 34.189 L 19.251 28.623 L 20.505 28.623 L 24.201 33.397 L 27.897 28.623 L 29.129 28.623 L 24.817 34.189 L 29.437 40.107 Z  M 38.017 28.535 L 38.017 28.535 Q 39.623 28.535 40.921 29.272 L 40.921 29.272 L 40.921 29.272 Q 42.219 30.009 42.956 31.34 L 42.956 31.34 L 42.956 31.34 Q 43.693 32.671 43.693 34.365 L 43.693 34.365 L 43.693 34.365 Q 43.693 36.059 42.956 37.379 L 42.956 37.379 L 42.956 37.379 Q 42.219 38.699 40.921 39.447 L 40.921 39.447 L 40.921 39.447 Q 39.623 40.195 38.017 40.195 L 38.017 40.195 L 38.017 40.195 Q 36.477 40.195 35.234 39.458 L 35.234 39.458 L 35.234 39.458 Q 33.991 38.721 33.309 37.401 L 33.309 37.401 L 33.309 40.107 L 32.253 40.107 L 32.253 23.783 L 33.353 23.783 L 33.353 31.241 L 33.353 31.241 Q 34.035 29.965 35.267 29.25 L 35.267 29.25 L 35.267 29.25 Q 36.499 28.535 38.017 28.535 L 38.017 28.535 Z  M 37.951 39.205 L 37.951 39.205 Q 39.271 39.205 40.327 38.589 L 40.327 38.589 L 40.327 38.589 Q 41.383 37.973 41.988 36.873 L 41.988 36.873 L 41.988 36.873 Q 42.593 35.773 42.593 34.365 L 42.593 34.365 L 42.593 34.365 Q 42.593 32.957 41.988 31.857 L 41.988 31.857 L 41.988 31.857 Q 41.383 30.757 40.327 30.141 L 40.327 30.141 L 40.327 30.141 Q 39.271 29.525 37.951 29.525 L 37.951 29.525 L 37.951 29.525 Q 36.631 29.525 35.586 30.141 L 35.586 30.141 L 35.586 30.141 Q 34.541 30.757 33.936 31.857 L 33.936 31.857 L 33.936 31.857 Q 33.331 32.957 33.331 34.365 L 33.331 34.365 L 33.331 34.365 Q 33.331 35.773 33.936 36.873 L 33.936 36.873 L 33.936 36.873 Q 34.541 37.973 35.586 38.589 L 35.586 38.589 L 35.586 38.589 Q 36.631 39.205 37.951 39.205 L 37.951 39.205 Z  M 52.867 28.535 L 52.867 28.535 Q 54.473 28.535 55.771 29.272 L 55.771 29.272 L 55.771 29.272 Q 57.069 30.009 57.806 31.34 L 57.806 31.34 L 57.806 31.34 Q 58.543 32.671 58.543 34.365 L 58.543 34.365 L 58.543 34.365 Q 58.543 36.059 57.806 37.379 L 57.806 37.379 L 57.806 37.379 Q 57.069 38.699 55.771 39.447 L 55.771 39.447 L 55.771 39.447 Q 54.473 40.195 52.867 40.195 L 52.867 40.195 L 52.867 40.195 Q 51.327 40.195 50.084 39.458 L 50.084 39.458 L 50.084 39.458 Q 48.841 38.721 48.159 37.401 L 48.159 37.401 L 48.159 40.107 L 47.103 40.107 L 47.103 23.783 L 48.203 23.783 L 48.203 31.241 L 48.203 31.241 Q 48.885 29.965 50.117 29.25 L 50.117 29.25 L 50.117 29.25 Q 51.349 28.535 52.867 28.535 L 52.867 28.535 Z  M 52.801 39.205 L 52.801 39.205 Q 54.121 39.205 55.177 38.589 L 55.177 38.589 L 55.177 38.589 Q 56.233 37.973 56.838 36.873 L 56.838 36.873 L 56.838 36.873 Q 57.443 35.773 57.443 34.365 L 57.443 34.365 L 57.443 34.365 Q 57.443 32.957 56.838 31.857 L 56.838 31.857 L 56.838 31.857 Q 56.233 30.757 55.177 30.141 L 55.177 30.141 L 55.177 30.141 Q 54.121 29.525 52.801 29.525 L 52.801 29.525 L 52.801 29.525 Q 51.481 29.525 50.436 30.141 L 50.436 30.141 L 50.436 30.141 Q 49.391 30.757 48.786 31.857 L 48.786 31.857 L 48.786 31.857 Q 48.181 32.957 48.181 34.365 L 48.181 34.365 L 48.181 34.365 Q 48.181 35.773 48.786 36.873 L 48.786 36.873 L 48.786 36.873 Q 49.391 37.973 50.436 38.589 L 50.436 38.589 L 50.436 38.589 Q 51.481 39.205 52.801 39.205 L 52.801 39.205 Z " fill="rgb(0,0,0)"/></g></svg>